<?xml version="1.0" encoding="UTF-8" standalone="no"?>
<!DOCTYPE svg PUBLIC "-//W3C//DTD SVG 1.1//EN" "http://www.w3.org/Graphics/SVG/1.1/DTD/svg11.dtd">
<!-- Created with Vectornator (http://vectornator.io/) -->
<svg height="100%" stroke-miterlimit="10" style="fill-rule:nonzero;clip-rule:evenodd;stroke-linecap:round;stroke-linejoin:round;" version="1.1" viewBox="0 0 44 44" width="100%" xml:space="preserve" xmlns="http://www.w3.org/2000/svg" xmlns:vectornator="http://vectornator.io" xmlns:xlink="http://www.w3.org/1999/xlink">
<defs/>
<g id="Untitled" vectornator:layerName="Untitled">
<path d="M22 42C19.2333 42 16.6333 41.475 14.2 40.425C11.7667 39.375 9.65 37.95 7.85 36.15C6.05 34.35 4.625 32.2333 3.575 29.8C2.525 27.3667 2 24.7667 2 22C2 19.2333 2.525 16.6333 3.575 14.2C4.625 11.7667 6.05 9.65 7.85 7.85C9.65 6.05 11.7667 4.625 14.2 3.575C16.6333 2.525 19.2333 2 22 2C24.7667 2 27.3667 2.525 29.8 3.575C32.2333 4.625 34.35 6.05 36.15 7.85C37.95 9.65 39.375 11.7667 40.425 14.2C41.475 16.6333 42 19.2333 42 22C42 24.7667 41.475 27.3667 40.425 29.8C39.375 32.2333 37.95 34.35 36.15 36.15C34.35 37.95 32.2333 39.375 29.8 40.425C27.3667 41.475 24.7667 42 22 42ZM22 39C26.7333 39 30.75 37.35 34.05 34.05C37.35 30.75 39 26.7333 39 22C39 19.9667 38.65 18.0167 37.95 16.15C37.25 14.2833 36.2667 12.5833 35 11.05L11.05 35C12.55 36.3 14.2417 37.2917 16.125 37.975C18.0083 38.6583 19.9667 39 22 39ZM9.05 32.95L32.95 9.05C31.4167 7.75 29.7167 6.75 27.85 6.05C25.9833 5.35 24.0333 5 22 5C17.2667 5 13.25 6.65 9.95 9.95C6.65 13.25 5 17.2667 5 22C5 24.0333 5.36667 25.9917 6.1 27.875C6.83333 29.7583 7.81667 31.45 9.05 32.95Z" fill="#8c30f5" fill-rule="nonzero" opacity="1" stroke="none"/>
</g>
</svg>
