<?xml version="1.0" encoding="UTF-8" standalone="no"?>
<!DOCTYPE svg PUBLIC "-//W3C//DTD SVG 1.1//EN" "http://www.w3.org/Graphics/SVG/1.1/DTD/svg11.dtd">
<!-- Created with Vectornator (http://vectornator.io/) -->
<svg height="100%" stroke-miterlimit="10" style="fill-rule:nonzero;clip-rule:evenodd;stroke-linecap:round;stroke-linejoin:round;" version="1.1" viewBox="0 0 48 48" width="100%" xml:space="preserve" xmlns="http://www.w3.org/2000/svg" xmlns:vectornator="http://vectornator.io" xmlns:xlink="http://www.w3.org/1999/xlink">
<defs/>
<g id="Untitled" vectornator:layerName="Untitled">
<g opacity="1">
<path d="M0 36L0 33.35C0 32.05 0.7 31 2.1 30.2C3.5 29.4 5.3 29 7.5 29C7.93333 29 8.33333 29.0083 8.7 29.025C9.06667 29.0417 9.43333 29.0833 9.8 29.15C9.53333 29.7167 9.33333 30.2917 9.2 30.875C9.06667 31.4583 9 32.0833 9 32.75L9 36L0 36Z" fill="#d6b1ff" fill-rule="nonzero" opacity="1" stroke="none"/>
<path d="M12 36L12 32.75C12 30.5833 13.1083 28.8333 15.325 27.5C17.5417 26.1667 20.4333 25.5 24 25.5C27.6 25.5 30.5 26.1667 32.7 27.5C34.9 28.8333 36 30.5833 36 32.75L36 36L12 36Z" fill="#8c30f5" fill-rule="nonzero" opacity="1" stroke="none"/>
<path d="M39 36L39 32.75C39 32.0833 38.9417 31.4583 38.825 30.875C38.7083 30.2917 38.5167 29.7167 38.25 29.15C38.6167 29.0833 38.9833 29.0417 39.35 29.025C39.7167 29.0083 40.1 29 40.5 29C42.7667 29 44.5833 29.4 45.95 30.2C47.3167 31 48 32.05 48 33.35L48 36L39 36Z" fill="#2ec5ce" fill-rule="nonzero" opacity="1" stroke="none"/>
<path d="M24 28.5C21.3333 28.5 19.1667 28.9 17.5 29.7C15.8333 30.5 15 31.5167 15 32.75L15 33L33 33L33 32.7C33 31.5 32.175 30.5 30.525 29.7C28.875 28.9 26.7 28.5 24 28.5Z" fill="#8c30f5" fill-rule="nonzero" opacity="1" stroke="none"/>
<path d="M7.5 27.5C6.53333 27.5 5.70833 27.1583 5.025 26.475C4.34167 25.7917 4 24.9667 4 24C4 23.0333 4.34167 22.2083 5.025 21.525C5.70833 20.8417 6.53333 20.5 7.5 20.5C8.46667 20.5 9.29167 20.8417 9.975 21.525C10.6583 22.2083 11 23.0333 11 24C11 24.9667 10.6583 25.7917 9.975 26.475C9.29167 27.1583 8.46667 27.5 7.5 27.5Z" fill="#d6b1ff" fill-rule="nonzero" opacity="1" stroke="none"/>
<path d="M40.468 27.484C39.5013 27.484 38.6763 27.1423 37.993 26.459C37.3096 25.7757 36.968 24.9507 36.968 23.984C36.968 23.0173 37.3096 22.1923 37.993 21.509C38.6763 20.8257 39.5013 20.484 40.468 20.484C41.4346 20.484 42.2596 20.8257 42.943 21.509C43.6263 22.1923 43.968 23.0173 43.968 23.984C43.968 24.9507 43.6263 25.7757 42.943 26.459C42.2596 27.1423 41.4346 27.484 40.468 27.484Z" fill="#2ec5ce" fill-rule="nonzero" opacity="1" stroke="none"/>
<path d="M24 24C22.3333 24 20.9167 23.4167 19.75 22.25C18.5833 21.0833 18 19.6667 18 18C18 16.3 18.5833 14.875 19.75 13.725C20.9167 12.575 22.3333 12 24 12C25.7 12 27.125 12.575 28.275 13.725C29.425 14.875 30 16.3 30 18C30 19.6667 29.425 21.0833 28.275 22.25C27.125 23.4167 25.7 24 24 24Z" fill="#8c30f5" fill-rule="nonzero" opacity="1" stroke="none"/>
<path d="M24 15C23.1667 15 22.4583 15.2833 21.875 15.85C21.2917 16.4167 21 17.1333 21 18C21 18.8333 21.2917 19.5417 21.875 20.125C22.4583 20.7083 23.1667 21 24 21C24.8667 21 25.5833 20.7083 26.15 20.125C26.7167 19.5417 27 18.8333 27 18C27 17.1333 26.7167 16.4167 26.15 15.85C25.5833 15.2833 24.8667 15 24 15Z" fill="#8c30f5" fill-rule="nonzero" opacity="1" stroke="none"/>
</g>
</g>
</svg>
