<?xml version="1.0" encoding="UTF-8" standalone="no"?>
<!DOCTYPE svg PUBLIC "-//W3C//DTD SVG 1.1//EN" "http://www.w3.org/Graphics/SVG/1.1/DTD/svg11.dtd">
<!-- Created with Vectornator (http://vectornator.io/) -->
<svg height="100%" stroke-miterlimit="10" style="fill-rule:nonzero;clip-rule:evenodd;stroke-linecap:round;stroke-linejoin:round;" version="1.1" viewBox="0 0 1024 1024" width="100%" xml:space="preserve" xmlns="http://www.w3.org/2000/svg" xmlns:xlink="http://www.w3.org/1999/xlink">
<defs>
<filter color-interpolation-filters="sRGB" filterUnits="userSpaceOnUse" height="56.0861" id="Filter" width="528.738" x="245.393" y="483.957">
<feGaussianBlur in="SourceGraphic" result="Blur" stdDeviation="5"/>
</filter>
</defs>
<clipPath id="ArtboardFrame">
<rect height="1024" width="1024" x="0" y="0"/>
</clipPath>
<g clip-path="url(#ArtboardFrame)" id="Layer-2">
<path d="M34.9945 0.0508829L989.006 0.0508829C1008.34 0.0508829 1024.01 15.7209 1024.01 35.0509L1024.01 988.949C1024.01 1008.28 1008.34 1023.95 989.006 1023.95L34.9945 1023.95C15.6645 1023.95-0.0055086 1008.28-0.0055086 988.949L-0.0055086 35.0509C-0.0055086 15.7209 15.6645 0.0508829 34.9945 0.0508829Z" fill="#ffffff" fill-rule="nonzero" opacity="1" stroke="none"/>
</g>
<g id="Layer-3">
<path d="M250.781 371.672L250.781 475.891C251.877 476.167 252.974 476.547 254.062 476.922L281.531 476.922L281.531 371.672L250.781 371.672ZM312.25 371.672L312.25 476.922L373.688 476.922L373.688 371.672L312.25 371.672ZM404.406 371.672L404.406 476.922L435.125 476.922L435.125 371.672L404.406 371.672ZM465.844 371.672L465.844 476.922L496.562 476.922L496.562 371.672L465.844 371.672ZM527.281 371.672L527.281 476.922L588.719 476.922L588.719 371.672L527.281 371.672ZM619.438 371.672L619.438 476.922L650.188 476.922L650.188 371.672L619.438 371.672ZM680.906 371.672L680.906 476.922L711.625 476.922L711.625 371.672L680.906 371.672ZM742.344 371.672L742.344 476.922L773.062 476.922L773.062 371.672L742.344 371.672ZM250.781 547.078L250.781 652.328L281.531 652.328L281.531 547.078L250.781 547.078ZM312.25 547.078L312.25 652.328L373.688 652.328L373.688 547.078L312.25 547.078ZM404.406 547.078L404.406 652.328L435.125 652.328L435.125 547.078L404.406 547.078ZM465.844 547.078L465.844 652.328L496.562 652.328L496.562 547.078L465.844 547.078ZM527.281 547.078L527.281 652.328L588.719 652.328L588.719 547.078L527.281 547.078ZM619.438 547.078L619.438 652.328L650.188 652.328L650.188 547.078L619.438 547.078ZM680.906 547.078L680.906 652.328L711.625 652.328L711.625 547.078L680.906 547.078ZM742.344 547.078L742.344 652.328L773.062 652.328L773.062 547.078L742.344 547.078Z" fill="#000000" fill-rule="nonzero" opacity="1" stroke="none"/>
<path d="M257.893 496.457L761.631 496.457L761.631 527.543L257.893 527.543L257.893 496.457Z" fill="#ff0000" fill-rule="nonzero" filter="url(#Filter)" opacity="1" stroke="none"/>
</g>
<g id="Layer-1">
<g opacity="1">
<path d="M213.332 670.967C214.56 671.378 216.753 671.864 220.256 671.864L803.744 671.864C807.247 671.864 809.44 671.378 810.668 670.967C810.411 669.698 809.735 667.554 807.983 664.523L516.24 159.207C514.488 156.174 512.971 154.516 512 153.659C511.029 154.516 509.512 156.174 507.76 159.207L216.017 664.522C214.267 667.554 213.591 669.698 213.332 670.967M803.744 725.198L220.256 725.198C196.141 725.198 176.579 715.27 166.583 697.956C156.588 680.646 157.772 658.739 169.829 637.855L461.573 132.54C473.631 111.656 492.011 99.6776 512 99.6776C531.989 99.6776 550.369 111.656 562.427 132.54L854.171 637.855C866.228 658.738 867.412 680.644 857.416 697.956C847.421 715.27 827.86 725.198 803.744 725.198" fill="#000000" fill-rule="nonzero" opacity="1" stroke="none"/>
<path d="M220.25 300.01C196.135 300.01 176.59 309.948 166.594 327.26C156.599 344.572 157.786 366.47 169.844 387.354L361.094 718.635C365.319 717.582 369.626 717.687 373.844 718.916C374.746 718.916 375.721 718.916 376.406 718.916C382.678 718.916 388.763 719.055 397.781 719.354C398.978 719.393 410.803 719.798 414.125 719.885C416.648 719.951 419.469 720.151 422.312 720.604C423.167 720.74 423.949 720.926 424.75 721.104L215.406 358.51C213.656 355.477 212.977 353.311 212.719 352.041C213.947 351.631 216.154 351.166 219.656 351.166L803.125 351.166C806.628 351.166 808.835 351.631 810.062 352.041C809.843 353.123 809.172 354.988 807.938 357.354C808.18 357.23 808.283 357.136 808.531 357.01C809.752 356.393 811.049 355.75 812.5 355.041C812.598 354.993 820.656 351.124 822.5 350.197C823.525 349.682 824.175 349.311 824.844 348.947C825.029 348.576 825.184 348.334 825.406 347.822C826.392 345.559 827.459 342.486 828.469 339.041C830.295 332.813 831.625 326.097 831.625 324.541C831.625 319.01 834.426 314.127 838.688 311.229C838.993 310.607 839.176 309.936 839.562 309.354C829.703 303.357 817.513 300.01 803.75 300.01L220.25 300.01Z" fill="#000000" fill-rule="nonzero" opacity="1" stroke="none"/>
<path d="M334.104 671.795L461.562 891.447C473.62 912.331 492.011 924.322 512 924.322C531.989 924.322 550.38 912.331 562.438 891.447L854.693 386.358C866.75 365.474 867.402 343.352 857.406 326.041C848.138 309.988 836.509 307.615 836.509 307.615L516.25 864.791C514.498 867.824 512.971 869.496 512 870.354C511.029 869.496 509.502 867.826 507.75 864.791L396.309 671.84" fill="#60cf4d" fill-rule="nonzero" opacity="1" stroke="none"/>
</g>
</g>
</svg>
