<?xml version="1.0" encoding="UTF-8" standalone="no"?><svg width="1433" height="258" viewBox="0 0 1433 258" fill="none" xmlns="http://www.w3.org/2000/svg">
<path d="M332.624 127.165L332.45 117.417L408.348 182H374.925L307.383 122.813L367.44 69.3709H400.341L332.624 127.165ZM284.404 69.3709H307.557V182H284.404V69.3709ZM462.329 184.089C451.42 184.089 441.788 182.348 433.432 178.867C425.192 175.385 418.751 170.337 414.109 163.722C409.467 156.991 407.146 148.751 407.146 139.002C407.146 129.254 409.467 121.014 414.109 114.283C418.751 107.436 425.192 102.272 433.432 98.7903C441.788 95.3087 451.42 93.5679 462.329 93.5679C473.238 93.5679 482.754 95.3087 490.878 98.7903C499.118 102.272 505.559 107.436 510.201 114.283C514.843 121.014 517.164 129.254 517.164 139.002C517.164 148.751 514.843 156.991 510.201 163.722C505.559 170.337 499.118 175.385 490.878 178.867C482.754 182.348 473.238 184.089 462.329 184.089ZM462.329 166.681C468.364 166.681 473.76 165.637 478.518 163.548C483.393 161.343 487.222 158.209 490.008 154.147C492.793 149.969 494.186 144.921 494.186 139.002C494.186 133.084 492.793 128.036 490.008 123.858C487.222 119.564 483.451 116.314 478.693 114.109C473.934 111.904 468.48 110.802 462.329 110.802C456.294 110.802 450.84 111.904 445.966 114.109C441.091 116.314 437.204 119.506 434.302 123.684C431.517 127.861 430.124 132.968 430.124 139.002C430.124 144.921 431.517 149.969 434.302 154.147C437.088 158.209 440.917 161.343 445.792 163.548C450.666 165.637 456.178 166.681 462.329 166.681ZM530.412 153.277H551.301C552.578 157.223 555.189 160.472 559.135 163.025C563.196 165.462 568.477 166.681 574.976 166.681C579.386 166.681 582.809 166.275 585.247 165.462C587.684 164.65 589.366 163.49 590.295 161.981C591.223 160.356 591.687 158.557 591.687 156.584C591.687 154.147 590.933 152.291 589.424 151.014C587.916 149.621 585.595 148.519 582.461 147.706C579.328 146.894 575.324 146.14 570.45 145.443C565.576 144.631 560.875 143.645 556.349 142.484C551.823 141.324 547.82 139.815 544.338 137.958C540.856 135.985 538.071 133.548 535.982 130.647C534.009 127.629 533.023 123.974 533.023 119.68C533.023 115.502 534.009 111.788 535.982 108.539C538.071 105.289 540.914 102.562 544.512 100.357C548.226 98.152 552.52 96.4692 557.394 95.3087C562.384 94.1482 567.723 93.5679 573.409 93.5679C581.997 93.5679 589.134 94.8445 594.821 97.3976C600.507 99.8347 604.743 103.316 607.529 107.842C610.43 112.252 611.881 117.359 611.881 123.161H591.861C590.933 118.867 589.076 115.792 586.291 113.935C583.506 111.962 579.212 110.976 573.409 110.976C567.723 110.976 563.429 111.846 560.527 113.587C557.626 115.328 556.175 117.707 556.175 120.724C556.175 123.161 557.046 125.076 558.786 126.469C560.643 127.745 563.313 128.79 566.794 129.602C570.392 130.415 574.86 131.285 580.198 132.213C584.724 133.142 589.018 134.186 593.08 135.347C597.258 136.507 600.972 138.016 604.221 139.873C607.471 141.614 610.024 143.993 611.881 147.01C613.853 149.911 614.84 153.625 614.84 158.151C614.84 163.722 613.215 168.422 609.966 172.252C606.832 176.081 602.306 179.041 596.388 181.13C590.469 183.103 583.39 184.089 575.15 184.089C567.839 184.089 561.514 183.335 556.175 181.826C550.953 180.201 546.601 178.17 543.119 175.733C539.638 173.18 536.911 170.511 534.938 167.726C533.081 164.824 531.804 162.097 531.108 159.544C530.412 156.991 530.18 154.902 530.412 153.277ZM711.184 182V134.476C711.184 129.718 710.372 125.772 708.747 122.639C707.123 119.506 704.511 117.127 700.914 115.502C697.432 113.877 692.732 113.065 686.813 113.065C681.127 113.065 675.962 114.167 671.32 116.372C666.678 118.461 662.907 121.246 660.005 124.728C657.104 128.094 655.479 131.691 655.131 135.521L654.957 125.947C655.537 122.117 656.872 118.287 658.961 114.457C661.05 110.628 663.835 107.146 667.317 104.013C670.798 100.879 674.976 98.3841 679.85 96.5272C684.841 94.5543 690.411 93.5679 696.562 93.5679C701.9 93.5679 706.832 94.2642 711.359 95.6568C715.885 96.9334 719.83 98.9643 723.196 101.75C726.561 104.535 729.173 108.016 731.029 112.194C732.886 116.256 733.815 121.072 733.815 126.643V182H711.184ZM633.719 182V60.667H656.35V182H633.719ZM833.24 153.277H855.174C854.245 159.196 851.75 164.476 847.688 169.118C843.742 173.76 838.346 177.416 831.499 180.085C824.652 182.754 816.296 184.089 806.431 184.089C795.406 184.089 785.658 182.348 777.186 178.867C768.714 175.269 762.099 170.105 757.341 163.374C752.583 156.642 750.204 148.519 750.204 139.002C750.204 129.486 752.525 121.362 757.167 114.631C761.809 107.784 768.25 102.562 776.49 98.9643C784.846 95.3667 794.594 93.5679 805.735 93.5679C817.108 93.5679 826.567 95.3667 834.11 98.9643C841.653 102.562 847.224 108.016 850.822 115.328C854.535 122.523 856.102 131.749 855.522 143.006H773.008C773.589 147.416 775.213 151.42 777.883 155.018C780.668 158.615 784.381 161.459 789.024 163.548C793.782 165.637 799.41 166.681 805.909 166.681C813.105 166.681 819.081 165.462 823.839 163.025C828.714 160.472 831.847 157.223 833.24 153.277ZM804.691 110.802C796.335 110.802 789.546 112.659 784.323 116.372C779.101 119.97 775.736 124.438 774.227 129.776H833.066C832.485 123.974 829.7 119.39 824.71 116.024C819.836 112.542 813.163 110.802 804.691 110.802ZM872.361 95.4828H894.991V182H872.361V95.4828ZM928.241 114.109C921.742 114.109 916.113 115.386 911.355 117.939C906.597 120.376 902.767 123.393 899.866 126.991C896.964 130.589 894.933 134.07 893.773 137.436L893.599 127.861C893.715 126.469 894.179 124.438 894.991 121.769C895.804 118.983 897.022 116.024 898.647 112.891C900.272 109.641 902.419 106.566 905.088 103.664C907.757 100.647 911.007 98.21 914.836 96.3532C918.666 94.4963 923.134 93.5679 928.241 93.5679V114.109ZM937.705 144.051H961.205C961.67 147.997 963.468 151.594 966.602 154.844C969.851 157.977 974.087 160.472 979.31 162.329C984.532 164.07 990.393 164.94 996.892 164.94C1002.81 164.94 1007.68 164.302 1011.51 163.025C1015.34 161.749 1018.19 159.95 1020.04 157.629C1021.9 155.308 1022.83 152.523 1022.83 149.273C1022.83 146.14 1021.67 143.761 1019.35 142.136C1017.03 140.395 1013.37 139.002 1008.38 137.958C1003.39 136.797 996.834 135.637 988.71 134.476C982.327 133.548 976.292 132.271 970.606 130.647C964.919 128.906 959.871 126.701 955.461 124.032C951.167 121.362 947.743 118.113 945.19 114.283C942.753 110.337 941.534 105.695 941.534 100.357C941.534 93.742 943.391 87.9393 947.105 82.9491C950.935 77.9588 956.563 74.071 963.991 71.2858C971.418 68.5005 980.528 67.1079 991.321 67.1079C1007.57 67.1079 1020.04 70.5895 1028.75 77.5526C1037.57 84.3997 1041.86 93.858 1041.63 105.927H1019C1018.54 99.0804 1015.63 94.1482 1010.3 91.1308C1005.07 88.1134 998.458 86.6047 990.451 86.6047C983.023 86.6047 976.872 87.7072 971.998 89.9122C967.24 92.1172 964.861 95.8889 964.861 101.227C964.861 103.316 965.441 105.173 966.602 106.798C967.762 108.307 969.735 109.641 972.52 110.802C975.306 111.962 979.077 113.065 983.836 114.109C988.594 115.154 994.512 116.198 1001.59 117.243C1008.21 118.171 1014.18 119.448 1019.52 121.072C1024.98 122.581 1029.62 124.612 1033.45 127.165C1037.39 129.602 1040.41 132.736 1042.5 136.565C1044.59 140.395 1045.63 145.095 1045.63 150.666C1045.63 157.513 1043.83 163.49 1040.24 168.596C1036.76 173.586 1031.3 177.474 1023.87 180.259C1016.56 183.044 1007.05 184.437 995.325 184.437C986.969 184.437 979.6 183.567 973.217 181.826C966.834 179.969 961.321 177.532 956.679 174.515C952.037 171.497 948.265 168.19 945.364 164.592C942.463 160.994 940.374 157.397 939.097 153.799C937.937 150.202 937.473 146.952 937.705 144.051ZM1165.81 147.881C1165.23 155.424 1162.79 161.923 1158.5 167.377C1154.32 172.832 1148.51 177.01 1141.09 179.911C1133.66 182.696 1124.84 184.089 1114.63 184.089C1103.95 184.089 1094.38 182.406 1085.9 179.041C1077.55 175.559 1070.93 170.511 1066.06 163.896C1061.3 157.165 1058.92 148.867 1058.92 139.002C1058.92 129.138 1061.3 120.84 1066.06 114.109C1070.93 107.378 1077.55 102.272 1085.9 98.7903C1094.38 95.3087 1103.95 93.5679 1114.63 93.5679C1124.84 93.5679 1133.6 95.0185 1140.91 97.9199C1148.22 100.705 1153.97 104.767 1158.15 110.105C1162.44 115.444 1164.94 121.885 1165.63 129.428H1144.92C1142.94 123.626 1139.29 119.099 1133.95 115.85C1128.61 112.601 1122.17 110.976 1114.63 110.976C1108.59 110.976 1103.08 112.02 1098.09 114.109C1093.22 116.198 1089.27 119.332 1086.25 123.509C1083.35 127.571 1081.9 132.736 1081.9 139.002C1081.9 145.153 1083.35 150.318 1086.25 154.496C1089.15 158.557 1093.1 161.633 1098.09 163.722C1103.08 165.695 1108.59 166.681 1114.63 166.681C1122.75 166.681 1129.37 165.056 1134.47 161.807C1139.69 158.557 1143.23 153.915 1145.09 147.881H1165.81ZM1224.57 183.915C1215.98 183.915 1208.14 182.058 1201.07 178.344C1194.1 174.515 1188.53 169.234 1184.35 162.503C1180.29 155.656 1178.26 147.764 1178.26 138.828C1178.26 129.66 1180.35 121.711 1184.53 114.98C1188.71 108.249 1194.33 103.026 1201.41 99.3125C1208.61 95.4828 1216.73 93.5679 1225.78 93.5679C1235.77 93.5679 1243.77 95.5988 1249.81 99.6607C1255.96 103.606 1260.43 109.003 1263.21 115.85C1266 122.697 1267.39 130.357 1267.39 138.828C1267.39 143.935 1266.58 149.157 1264.95 154.496C1263.33 159.718 1260.83 164.592 1257.47 169.118C1254.1 173.528 1249.69 177.126 1244.24 179.911C1238.78 182.58 1232.23 183.915 1224.57 183.915ZM1231.88 166.507C1238.72 166.507 1244.64 165.346 1249.63 163.025C1254.62 160.704 1258.45 157.455 1261.12 153.277C1263.79 149.099 1265.13 144.283 1265.13 138.828C1265.13 132.91 1263.73 127.919 1260.95 123.858C1258.28 119.68 1254.45 116.546 1249.46 114.457C1244.59 112.252 1238.72 111.15 1231.88 111.15C1222.25 111.15 1214.76 113.703 1209.42 118.809C1204.08 123.8 1201.41 130.473 1201.41 138.828C1201.41 144.399 1202.69 149.273 1205.24 153.451C1207.8 157.513 1211.34 160.704 1215.86 163.025C1220.5 165.346 1225.84 166.507 1231.88 166.507ZM1265.13 95.4828H1287.76V182H1266.69C1266.69 182 1266.52 180.897 1266.17 178.692C1265.94 176.371 1265.71 173.47 1265.47 169.989C1265.24 166.507 1265.13 163.083 1265.13 159.718V95.4828ZM1308.24 95.4828H1330.87V182H1308.24V95.4828ZM1371.08 93.5679C1376.42 93.5679 1381.35 94.2642 1385.88 95.6568C1390.4 97.0495 1394.35 99.1964 1397.72 102.098C1401.08 104.999 1403.69 108.713 1405.55 113.239C1407.41 117.649 1408.33 122.929 1408.33 129.08V182H1385.7V133.084C1385.7 125.772 1383.9 120.434 1380.31 117.069C1376.83 113.587 1371.08 111.846 1363.07 111.846C1357.04 111.846 1351.58 113.007 1346.71 115.328C1341.84 117.649 1337.89 120.608 1334.87 124.206C1331.86 127.687 1330.11 131.343 1329.65 135.173L1329.48 126.295C1330.06 122.233 1331.39 118.287 1333.48 114.457C1335.57 110.628 1338.35 107.146 1341.84 104.013C1345.43 100.763 1349.67 98.21 1354.54 96.3532C1359.42 94.4963 1364.93 93.5679 1371.08 93.5679Z" fill="black"/>
<path d="M29.369 85.1475V117.716C29.7115 117.802 30.0543 117.921 30.3943 118.038H38.9784V85.1475H29.369ZM48.5781 85.1475V118.038H67.7774V85.1475H48.5781ZM77.3768 85.1475V118.038H86.9765V85.1475H77.3768ZM96.5762 85.1475V118.038H106.176V85.1475H96.5762ZM115.775 85.1475V118.038H134.975V85.1475H115.775ZM144.574 85.1475V118.038H154.184V85.1475H144.574ZM163.783 85.1475V118.038H173.383V85.1475H163.783ZM182.982 85.1475V118.038H192.582V85.1475H182.982ZM29.369 139.962V172.852H38.9784V139.962H29.369ZM48.5781 139.962V172.852H67.7774V139.962H48.5781ZM77.3768 139.962V172.852H86.9765V139.962H77.3768ZM96.5762 139.962V172.852H106.176V139.962H96.5762ZM115.775 139.962V172.852H134.975V139.962H115.775ZM144.574 139.962V172.852H154.184V139.962H144.574ZM163.783 139.962V172.852H173.383V139.962H163.783ZM182.982 139.962V172.852H192.582V139.962H182.982Z" fill="black"/>
<g filter="url(#filter0_f_1_62)">
<path d="M31.5915 124.143H189.01V133.857H31.5915V124.143Z" fill="#FF0000"/>
</g>
<path d="M17.6663 178.677C18.05 178.806 18.7353 178.957 19.83 178.957H202.17C203.265 178.957 203.95 178.806 204.334 178.677C204.253 178.281 204.042 177.611 203.495 176.663L112.325 18.7522C111.778 17.8043 111.303 17.2862 111 17.0184C110.697 17.2862 110.223 17.8043 109.675 18.7522L18.5053 176.663C17.9584 177.611 17.7472 178.281 17.6663 178.677ZM202.17 195.624H19.83C12.2941 195.624 6.18094 192.522 3.05719 187.111C-0.0662447 181.702 0.303756 174.856 4.07157 168.33L95.2416 10.4187C99.0097 3.89246 104.753 0.149216 111 0.149216C117.247 0.149216 122.99 3.89246 126.758 10.4187L217.928 168.33C221.696 174.856 222.066 181.701 218.943 187.111C215.819 192.522 209.706 195.624 202.17 195.624Z" fill="black"/>
<path d="M19.8282 62.753C12.2923 62.753 6.18448 65.8586 3.06073 71.2686C-0.0627039 76.6786 0.308234 83.5218 4.07636 90.048L63.842 193.573C65.1623 193.244 66.5082 193.277 67.8264 193.661C68.1082 193.661 68.4129 193.661 68.627 193.661C70.587 193.661 72.4886 193.705 75.3067 193.798C75.6807 193.81 79.376 193.937 80.4142 193.964C81.2026 193.985 82.0842 194.047 82.9726 194.189C83.2398 194.231 83.4842 194.289 83.7345 194.345L18.3145 81.0343C17.7676 80.0864 17.5554 79.4096 17.4748 79.0127C17.8585 78.8846 18.5482 78.7392 19.6426 78.7392H201.977C203.071 78.7392 203.761 78.8846 204.144 79.0127C204.076 79.3508 203.866 79.9336 203.481 80.673C203.556 80.6343 203.589 80.6049 203.666 80.5655C204.048 80.3727 204.453 80.1717 204.906 79.9502C204.937 79.9352 207.455 78.7261 208.031 78.4364C208.352 78.2755 208.555 78.1596 208.764 78.0458C208.822 77.9299 208.87 77.8543 208.939 77.6943C209.248 76.9871 209.581 76.0267 209.897 74.9502C210.467 73.0039 210.883 70.9052 210.883 70.4189C210.883 68.6905 211.758 67.1646 213.09 66.2589C213.185 66.0646 213.243 65.8549 213.363 65.673C210.282 63.7989 206.473 62.753 202.172 62.753H19.8282Z" fill="black"/>
<path d="M55.4075 178.936L95.2381 247.577C99.0062 254.103 104.753 257.851 111 257.851C117.247 257.851 122.994 254.103 126.762 247.577L218.092 89.7368C221.859 83.2106 222.063 76.2974 218.939 70.8877C216.043 65.8712 212.409 65.1296 212.409 65.1296L112.328 239.247C111.781 240.195 111.303 240.717 111 240.986C110.697 240.717 110.219 240.196 109.672 239.247L74.8465 178.95" fill="#60CF4D"/>
<defs>
<filter id="filter0_f_1_62" x="31.5878" y="124.139" width="157.425" height="9.72179" filterUnits="userSpaceOnUse" color-interpolation-filters="sRGB">
<feFlood flood-opacity="0" result="BackgroundImageFix"/>
<feBlend mode="normal" in="SourceGraphic" in2="BackgroundImageFix" result="shape"/>
<feGaussianBlur stdDeviation="0.00185192" result="effect1_foregroundBlur_1_62"/>
</filter>
</defs>
</svg>
