<?xml version="1.0" encoding="UTF-8" standalone="no"?><svg width="1482" height="320" viewBox="0 0 1482 320" fill="none" xmlns="http://www.w3.org/2000/svg">
<path d="M381.624 158.165L381.45 148.417L457.348 213H423.925L356.383 153.813L416.44 100.371H449.341L381.624 158.165ZM333.404 100.371H356.557V213H333.404V100.371ZM511.329 215.089C500.42 215.089 490.788 213.348 482.432 209.867C474.192 206.385 467.751 201.337 463.109 194.722C458.467 187.991 456.146 179.751 456.146 170.002C456.146 160.254 458.467 152.014 463.109 145.283C467.751 138.436 474.192 133.272 482.432 129.79C490.788 126.309 500.42 124.568 511.329 124.568C522.238 124.568 531.754 126.309 539.878 129.79C548.118 133.272 554.559 138.436 559.201 145.283C563.843 152.014 566.164 160.254 566.164 170.002C566.164 179.751 563.843 187.991 559.201 194.722C554.559 201.337 548.118 206.385 539.878 209.867C531.754 213.348 522.238 215.089 511.329 215.089ZM511.329 197.681C517.364 197.681 522.76 196.637 527.518 194.548C532.393 192.343 536.222 189.209 539.008 185.147C541.793 180.969 543.186 175.921 543.186 170.002C543.186 164.084 541.793 159.036 539.008 154.858C536.222 150.564 532.451 147.314 527.693 145.109C522.934 142.904 517.48 141.802 511.329 141.802C505.294 141.802 499.84 142.904 494.966 145.109C490.091 147.314 486.204 150.506 483.302 154.684C480.517 158.861 479.124 163.968 479.124 170.002C479.124 175.921 480.517 180.969 483.302 185.147C486.088 189.209 489.917 192.343 494.792 194.548C499.666 196.637 505.178 197.681 511.329 197.681ZM579.412 184.277H600.301C601.578 188.223 604.189 191.472 608.135 194.025C612.196 196.462 617.477 197.681 623.976 197.681C628.386 197.681 631.809 197.275 634.247 196.462C636.684 195.65 638.366 194.49 639.295 192.981C640.223 191.356 640.687 189.557 640.687 187.584C640.687 185.147 639.933 183.291 638.424 182.014C636.916 180.621 634.595 179.519 631.461 178.706C628.328 177.894 624.324 177.14 619.45 176.443C614.576 175.631 609.875 174.645 605.349 173.484C600.823 172.324 596.82 170.815 593.338 168.958C589.856 166.985 587.071 164.548 584.982 161.647C583.009 158.629 582.023 154.974 582.023 150.68C582.023 146.502 583.009 142.788 584.982 139.539C587.071 136.289 589.914 133.562 593.512 131.357C597.226 129.152 601.52 127.469 606.394 126.309C611.384 125.148 616.723 124.568 622.409 124.568C630.997 124.568 638.134 125.844 643.821 128.398C649.507 130.835 653.743 134.316 656.529 138.842C659.43 143.252 660.881 148.359 660.881 154.161H640.861C639.933 149.867 638.076 146.792 635.291 144.935C632.506 142.962 628.212 141.976 622.409 141.976C616.723 141.976 612.429 142.846 609.527 144.587C606.626 146.328 605.175 148.707 605.175 151.724C605.175 154.161 606.046 156.076 607.786 157.469C609.643 158.745 612.313 159.79 615.794 160.602C619.392 161.415 623.86 162.285 629.198 163.213C633.724 164.142 638.018 165.186 642.08 166.347C646.258 167.507 649.972 169.016 653.221 170.873C656.471 172.614 659.024 174.993 660.881 178.01C662.853 180.911 663.84 184.625 663.84 189.151C663.84 194.722 662.215 199.422 658.966 203.252C655.832 207.081 651.306 210.041 645.388 212.13C639.469 214.103 632.39 215.089 624.15 215.089C616.839 215.089 610.514 214.335 605.175 212.826C599.953 211.201 595.601 209.17 592.119 206.733C588.638 204.18 585.911 201.511 583.938 198.726C582.081 195.824 580.804 193.097 580.108 190.544C579.412 187.991 579.18 185.902 579.412 184.277ZM760.184 213V165.476C760.184 160.718 759.372 156.772 757.747 153.639C756.123 150.506 753.511 148.127 749.914 146.502C746.432 144.877 741.732 144.065 735.813 144.065C730.127 144.065 724.962 145.167 720.32 147.372C715.678 149.461 711.907 152.246 709.005 155.728C706.104 159.094 704.479 162.691 704.131 166.521L703.957 156.947C704.537 153.117 705.872 149.287 707.961 145.457C710.05 141.628 712.835 138.146 716.317 135.013C719.798 131.879 723.976 129.384 728.85 127.527C733.841 125.554 739.411 124.568 745.562 124.568C750.9 124.568 755.832 125.264 760.359 126.657C764.885 127.933 768.83 129.964 772.196 132.75C775.561 135.535 778.173 139.016 780.029 143.194C781.886 147.256 782.815 152.072 782.815 157.643V213H760.184ZM682.719 213V91.667H705.35V213H682.719ZM882.24 184.277H904.174C903.245 190.196 900.75 195.476 896.688 200.118C892.742 204.76 887.346 208.416 880.499 211.085C873.652 213.754 865.296 215.089 855.431 215.089C844.406 215.089 834.658 213.348 826.186 209.867C817.714 206.269 811.099 201.105 806.341 194.374C801.583 187.642 799.204 179.519 799.204 170.002C799.204 160.486 801.525 152.362 806.167 145.631C810.809 138.784 817.25 133.562 825.49 129.964C833.846 126.367 843.594 124.568 854.735 124.568C866.108 124.568 875.567 126.367 883.11 129.964C890.653 133.562 896.224 139.016 899.822 146.328C903.535 153.523 905.102 162.749 904.522 174.006H822.008C822.589 178.416 824.213 182.42 826.883 186.018C829.668 189.615 833.381 192.459 838.024 194.548C842.782 196.637 848.41 197.681 854.909 197.681C862.105 197.681 868.081 196.462 872.839 194.025C877.714 191.472 880.847 188.223 882.24 184.277ZM853.691 141.802C845.335 141.802 838.546 143.659 833.323 147.372C828.101 150.97 824.736 155.438 823.227 160.776H882.066C881.485 154.974 878.7 150.39 873.71 147.024C868.836 143.542 862.163 141.802 853.691 141.802ZM921.361 126.483H943.991V213H921.361V126.483ZM977.241 145.109C970.742 145.109 965.113 146.386 960.355 148.939C955.597 151.376 951.767 154.393 948.866 157.991C945.964 161.589 943.933 165.07 942.773 168.436L942.599 158.861C942.715 157.469 943.179 155.438 943.991 152.769C944.804 149.983 946.022 147.024 947.647 143.891C949.272 140.641 951.419 137.566 954.088 134.664C956.757 131.647 960.007 129.21 963.836 127.353C967.666 125.496 972.134 124.568 977.241 124.568V145.109ZM986.705 175.051H1010.21C1010.67 178.997 1012.47 182.594 1015.6 185.844C1018.85 188.977 1023.09 191.472 1028.31 193.329C1033.53 195.07 1039.39 195.94 1045.89 195.94C1051.81 195.94 1056.68 195.302 1060.51 194.025C1064.34 192.749 1067.19 190.95 1069.04 188.629C1070.9 186.308 1071.83 183.523 1071.83 180.273C1071.83 177.14 1070.67 174.761 1068.35 173.136C1066.03 171.395 1062.37 170.002 1057.38 168.958C1052.39 167.797 1045.83 166.637 1037.71 165.476C1031.33 164.548 1025.29 163.271 1019.61 161.647C1013.92 159.906 1008.87 157.701 1004.46 155.032C1000.17 152.362 996.743 149.113 994.19 145.283C991.753 141.337 990.534 136.695 990.534 131.357C990.534 124.742 992.391 118.939 996.105 113.949C999.935 108.959 1005.56 105.071 1012.99 102.286C1020.42 99.5005 1029.53 98.1079 1040.32 98.1079C1056.57 98.1079 1069.04 101.589 1077.75 108.553C1086.57 115.4 1090.86 124.858 1090.63 136.927H1068C1067.54 130.08 1064.63 125.148 1059.3 122.131C1054.07 119.113 1047.46 117.605 1039.45 117.605C1032.02 117.605 1025.87 118.707 1021 120.912C1016.24 123.117 1013.86 126.889 1013.86 132.227C1013.86 134.316 1014.44 136.173 1015.6 137.798C1016.76 139.307 1018.74 140.641 1021.52 141.802C1024.31 142.962 1028.08 144.065 1032.84 145.109C1037.59 146.154 1043.51 147.198 1050.59 148.243C1057.21 149.171 1063.18 150.448 1068.52 152.072C1073.98 153.581 1078.62 155.612 1082.45 158.165C1086.39 160.602 1089.41 163.736 1091.5 167.565C1093.59 171.395 1094.63 176.095 1094.63 181.666C1094.63 188.513 1092.83 194.49 1089.24 199.596C1085.76 204.586 1080.3 208.474 1072.87 211.259C1065.56 214.044 1056.05 215.437 1044.32 215.437C1035.97 215.437 1028.6 214.567 1022.22 212.826C1015.83 210.969 1010.32 208.532 1005.68 205.515C1001.04 202.497 997.265 199.19 994.364 195.592C991.463 191.994 989.374 188.397 988.097 184.799C986.937 181.202 986.473 177.952 986.705 175.051ZM1214.81 178.881C1214.23 186.424 1211.79 192.923 1207.5 198.377C1203.32 203.832 1197.51 208.01 1190.09 210.911C1182.66 213.696 1173.84 215.089 1163.63 215.089C1152.95 215.089 1143.38 213.406 1134.9 210.041C1126.55 206.559 1119.93 201.511 1115.06 194.896C1110.3 188.165 1107.92 179.867 1107.92 170.002C1107.92 160.138 1110.3 151.84 1115.06 145.109C1119.93 138.378 1126.55 133.272 1134.9 129.79C1143.38 126.309 1152.95 124.568 1163.63 124.568C1173.84 124.568 1182.6 126.019 1189.91 128.92C1197.22 131.705 1202.97 135.767 1207.15 141.105C1211.44 146.444 1213.94 152.885 1214.63 160.428H1193.92C1191.94 154.626 1188.29 150.099 1182.95 146.85C1177.61 143.601 1171.17 141.976 1163.63 141.976C1157.59 141.976 1152.08 143.02 1147.09 145.109C1142.22 147.198 1138.27 150.332 1135.25 154.509C1132.35 158.571 1130.9 163.736 1130.9 170.002C1130.9 176.153 1132.35 181.318 1135.25 185.496C1138.15 189.557 1142.1 192.633 1147.09 194.722C1152.08 196.695 1157.59 197.681 1163.63 197.681C1171.75 197.681 1178.37 196.056 1183.47 192.807C1188.69 189.557 1192.23 184.915 1194.09 178.881H1214.81ZM1273.57 214.915C1264.98 214.915 1257.14 213.058 1250.07 209.344C1243.1 205.515 1237.53 200.234 1233.35 193.503C1229.29 186.656 1227.26 178.764 1227.26 169.828C1227.26 160.66 1229.35 152.711 1233.53 145.98C1237.71 139.249 1243.33 134.026 1250.41 130.312C1257.61 126.483 1265.73 124.568 1274.78 124.568C1284.77 124.568 1292.77 126.599 1298.81 130.661C1304.96 134.606 1309.43 140.003 1312.21 146.85C1315 153.697 1316.39 161.357 1316.39 169.828C1316.39 174.935 1315.58 180.157 1313.95 185.496C1312.33 190.718 1309.83 195.592 1306.47 200.118C1303.1 204.528 1298.69 208.126 1293.24 210.911C1287.78 213.58 1281.23 214.915 1273.57 214.915ZM1280.88 197.507C1287.72 197.507 1293.64 196.346 1298.63 194.025C1303.62 191.704 1307.45 188.455 1310.12 184.277C1312.79 180.099 1314.13 175.283 1314.13 169.828C1314.13 163.91 1312.73 158.919 1309.95 154.858C1307.28 150.68 1303.45 147.546 1298.46 145.457C1293.59 143.252 1287.72 142.15 1280.88 142.15C1271.25 142.15 1263.76 144.703 1258.42 149.809C1253.08 154.8 1250.41 161.473 1250.41 169.828C1250.41 175.399 1251.69 180.273 1254.24 184.451C1256.8 188.513 1260.34 191.704 1264.86 194.025C1269.5 196.346 1274.84 197.507 1280.88 197.507ZM1314.13 126.483H1336.76V213H1315.69C1315.69 213 1315.52 211.897 1315.17 209.692C1314.94 207.371 1314.71 204.47 1314.47 200.989C1314.24 197.507 1314.13 194.083 1314.13 190.718V126.483ZM1357.24 126.483H1379.87V213H1357.24V126.483ZM1420.08 124.568C1425.42 124.568 1430.35 125.264 1434.88 126.657C1439.4 128.049 1443.35 130.196 1446.72 133.098C1450.08 135.999 1452.69 139.713 1454.55 144.239C1456.41 148.649 1457.33 153.929 1457.33 160.08V213H1434.7V164.084C1434.7 156.772 1432.9 151.434 1429.31 148.069C1425.83 144.587 1420.08 142.846 1412.07 142.846C1406.04 142.846 1400.58 144.007 1395.71 146.328C1390.84 148.649 1386.89 151.608 1383.87 155.206C1380.86 158.687 1379.11 162.343 1378.65 166.173L1378.48 157.295C1379.06 153.233 1380.39 149.287 1382.48 145.457C1384.57 141.628 1387.35 138.146 1390.84 135.013C1394.43 131.763 1398.67 129.21 1403.54 127.353C1408.42 125.496 1413.93 124.568 1420.08 124.568Z" fill="white"/>
<g clip-path="url(#clip0_1_62)">
<path d="M10.9358 0.0147324H309.064C315.106 0.0147324 320.003 4.91161 320.003 10.9522V309.045C320.003 315.086 315.106 319.983 309.064 319.983H10.9358C4.89517 319.983 -0.00170898 315.086 -0.00170898 309.045V10.9522C-0.00170898 4.91161 4.89517 0.0147324 10.9358 0.0147324Z" fill="white"/>
</g>
<path d="M78.369 116.147V148.716C78.7115 148.802 79.0543 148.921 79.3943 149.038H87.9784V116.147H78.369ZM97.5781 116.147V149.038H116.777V116.147H97.5781ZM126.377 116.147V149.038H135.977V116.147H126.377ZM145.576 116.147V149.038H155.176V116.147H145.576ZM164.775 116.147V149.038H183.975V116.147H164.775ZM193.574 116.147V149.038H203.184V116.147H193.574ZM212.783 116.147V149.038H222.383V116.147H212.783ZM231.982 116.147V149.038H241.582V116.147H231.982ZM78.369 170.962V203.852H87.9784V170.962H78.369ZM97.5781 170.962V203.852H116.777V170.962H97.5781ZM126.377 170.962V203.852H135.977V170.962H126.377ZM145.576 170.962V203.852H155.176V170.962H145.576ZM164.775 170.962V203.852H183.975V170.962H164.775ZM193.574 170.962V203.852H203.184V170.962H193.574ZM212.783 170.962V203.852H222.383V170.962H212.783ZM231.982 170.962V203.852H241.582V170.962H231.982Z" fill="black"/>
<g filter="url(#filter0_f_1_62)">
<path d="M80.5915 155.143H238.01V164.857H80.5915V155.143Z" fill="#FF0000"/>
</g>
<path d="M66.6663 209.677C67.05 209.806 67.7353 209.957 68.83 209.957H251.17C252.265 209.957 252.95 209.806 253.334 209.677C253.253 209.281 253.042 208.611 252.495 207.663L161.325 49.7522C160.778 48.8043 160.303 48.2862 160 48.0184C159.697 48.2862 159.223 48.8043 158.675 49.7522L67.5053 207.663C66.9584 208.611 66.7472 209.281 66.6663 209.677ZM251.17 226.624H68.83C61.2941 226.624 55.1809 223.522 52.0572 218.111C48.9338 212.702 49.3038 205.856 53.0716 199.33L144.242 41.4187C148.01 34.8925 153.753 31.1492 160 31.1492C166.247 31.1492 171.99 34.8925 175.758 41.4187L266.928 199.33C270.696 205.856 271.066 212.701 267.943 218.111C264.819 223.522 258.706 226.624 251.17 226.624Z" fill="black"/>
<path d="M68.8282 93.753C61.2923 93.753 55.1845 96.8586 52.0607 102.269C48.9373 107.679 49.3082 114.522 53.0764 121.048L112.842 224.573C114.162 224.244 115.508 224.277 116.826 224.661C117.108 224.661 117.413 224.661 117.627 224.661C119.587 224.661 121.489 224.705 124.307 224.798C124.681 224.81 128.376 224.937 129.414 224.964C130.203 224.985 131.084 225.047 131.973 225.189C132.24 225.231 132.484 225.289 132.734 225.345L67.3145 112.034C66.7676 111.086 66.5554 110.41 66.4748 110.013C66.8585 109.885 67.5482 109.739 68.6426 109.739H250.977C252.071 109.739 252.761 109.885 253.144 110.013C253.076 110.351 252.866 110.934 252.481 111.673C252.556 111.634 252.589 111.605 252.666 111.566C253.048 111.373 253.453 111.172 253.906 110.95C253.937 110.935 256.455 109.726 257.031 109.436C257.352 109.276 257.555 109.16 257.764 109.046C257.822 108.93 257.87 108.854 257.939 108.694C258.248 107.987 258.581 107.027 258.897 105.95C259.467 104.004 259.883 101.905 259.883 101.419C259.883 99.6905 260.758 98.1646 262.09 97.2589C262.185 97.0646 262.243 96.8549 262.363 96.673C259.282 94.7989 255.473 93.753 251.172 93.753H68.8282Z" fill="black"/>
<path d="M104.407 209.936L144.238 278.577C148.006 285.103 153.753 288.851 160 288.851C166.247 288.851 171.994 285.103 175.762 278.577L267.092 120.737C270.859 114.211 271.063 107.297 267.939 101.888C265.043 96.8712 261.409 96.1296 261.409 96.1296L161.328 270.247C160.781 271.195 160.303 271.717 160 271.986C159.697 271.717 159.219 271.196 158.672 270.247L123.847 209.95" fill="#60CF4D"/>
<defs>
<filter id="filter0_f_1_62" x="80.5878" y="155.139" width="157.425" height="9.72179" filterUnits="userSpaceOnUse" color-interpolation-filters="sRGB">
<feFlood flood-opacity="0" result="BackgroundImageFix"/>
<feBlend mode="normal" in="SourceGraphic" in2="BackgroundImageFix" result="shape"/>
<feGaussianBlur stdDeviation="0.00185192" result="effect1_foregroundBlur_1_62"/>
</filter>
<clipPath id="clip0_1_62">
<path d="M0 9.48181C0 4.24515 4.24515 0 9.48181 0H310.518C315.755 0 320 4.24515 320 9.48181V310.518C320 315.755 315.755 320 310.518 320H9.48181C4.24515 320 0 315.755 0 310.518V9.48181Z" fill="white"/>
</clipPath>
</defs>
</svg>
